<svg width="25" height="24" viewBox="0 0 25 24" fill="none" xmlns="http://www.w3.org/2000/svg">
<path d="M16.55 3.56V4.01584L17.0039 4.05787C18.2607 4.17424 19.1396 4.60009 19.7286 5.22534C20.3187 5.8518 20.6659 6.72969 20.7608 7.83991C20.7604 7.84 20.7602 7.84 20.7601 7.84H20.76H3.84166C3.84103 7.83968 3.84022 7.83919 3.83941 7.83853C3.9344 6.72896 4.28161 5.85155 4.87149 5.22534C5.46046 4.60009 6.33935 4.17424 7.59613 4.05787L8.05003 4.01584V3.56V2C8.05003 1.86614 8.16618 1.75 8.30003 1.75C8.43389 1.75 8.55003 1.86614 8.55003 2V3.5V4H9.05003H15.55H16.05V3.5V2C16.05 1.86614 16.1662 1.75 16.3 1.75C16.4339 1.75 16.55 1.86614 16.55 2V3.56Z" fill="#064BAC" stroke="#064BAC"/>
<path d="M4.30005 10.34H20.3C20.5739 10.34 20.8 10.5662 20.8 10.84V17C20.8 18.4234 20.4441 19.5331 19.7462 20.2848C19.0544 21.0298 17.9547 21.5 16.3 21.5H8.30005C6.64535 21.5 5.5457 21.0298 4.85395 20.2848C4.15596 19.5331 3.80005 18.4234 3.80005 17V10.84C3.80005 10.5662 4.02619 10.34 4.30005 10.34Z" fill="#064BAC" stroke="#064BAC"/>
</svg>
