<svg width="25" height="24" viewBox="0 0 25 24" fill="none" xmlns="http://www.w3.org/2000/svg">
<path d="M12.15 18.75H12.65V18.25V16.4965C12.7341 16.499 12.8175 16.5 12.9 16.5C12.9826 16.5 13.066 16.499 13.15 16.4965V18.25V18.75H13.65H15.9C16.7239 18.75 17.4 19.4262 17.4 20.25V20.5V21H17.9H18.9C19.0339 21 19.15 21.1162 19.15 21.25C19.15 21.3839 19.0339 21.5 18.9 21.5H6.90002C6.76617 21.5 6.65002 21.3839 6.65002 21.25C6.65002 21.1162 6.76617 21 6.90002 21H7.90002H8.40002V20.5V20.25C8.40002 19.4262 9.07617 18.75 9.90002 18.75H12.15Z" fill="#064BAC" stroke="#064BAC"/>
<path d="M19.2029 11.1724L18.9989 11.2497L18.9168 11.4518C17.9507 13.8299 15.6296 15.5 12.9001 15.5C10.1705 15.5 7.84938 13.8299 6.88329 11.4518L6.80118 11.2497L6.59717 11.1724C6.01812 10.9531 5.49963 10.5903 5.08256 10.1754C4.21828 9.21476 3.68005 8.10231 3.68005 6.82C3.68005 5.65614 4.5862 4.75 5.75005 4.75H6.31005H6.62221L6.75928 4.46954C7.3294 3.30297 8.52002 2.5 9.90005 2.5H15.9001C17.2801 2.5 18.4707 3.30297 19.0408 4.46954L19.1779 4.75H19.4901H20.0501C21.2139 4.75 22.1201 5.65614 22.1201 6.82C22.1201 8.10231 21.5818 9.21477 20.7175 10.1754C20.3005 10.5903 19.782 10.9531 19.2029 11.1724Z" fill="#064BAC" stroke="#064BAC"/>
</svg>
