<svg width="25" height="24" viewBox="0 0 25 24" fill="none" xmlns="http://www.w3.org/2000/svg">
<path d="M13.05 16.5V18.6" stroke="#4E5059" stroke-width="1.5" stroke-linecap="round" stroke-linejoin="round"/>
<path d="M8.05005 22H18.05V21C18.05 19.9 17.15 19 16.05 19H10.05C8.95005 19 8.05005 19.9 8.05005 21V22V22Z" stroke="#4E5059" stroke-width="1.5" stroke-miterlimit="10"/>
<path d="M7.05005 22H19.05" stroke="#4E5059" stroke-width="1.5" stroke-linecap="round" stroke-linejoin="round"/>
<path d="M12.9 16C9.03002 16 5.90002 12.87 5.90002 9V6C5.90002 3.79 7.69002 2 9.90002 2H15.9C18.11 2 19.9 3.79 19.9 6V9C19.9 12.87 16.77 16 12.9 16Z" stroke="#4E5059" stroke-width="1.5" stroke-linecap="round" stroke-linejoin="round"/>
<path d="M6.37006 11.65C5.62006 11.41 4.96006 10.97 4.44006 10.45C3.54006 9.45001 2.94006 8.25001 2.94006 6.85001C2.94006 5.45001 4.04006 4.35001 5.44006 4.35001H6.09006C5.89006 4.81001 5.79006 5.32001 5.79006 5.85001V8.85001C5.79006 9.85001 6.00006 10.79 6.37006 11.65Z" stroke="#4E5059" stroke-width="1.5" stroke-linecap="round" stroke-linejoin="round"/>
<path d="M19.4301 11.65C20.1801 11.41 20.8401 10.97 21.3601 10.45C22.2601 9.45001 22.8601 8.25001 22.8601 6.85001C22.8601 5.45001 21.7601 4.35001 20.3601 4.35001H19.7101C19.9101 4.81001 20.0101 5.32001 20.0101 5.85001V8.85001C20.0101 9.85001 19.8001 10.79 19.4301 11.65Z" stroke="#4E5059" stroke-width="1.5" stroke-linecap="round" stroke-linejoin="round"/>
</svg>
