<svg width="25" height="24" viewBox="0 0 25 24" fill="none" xmlns="http://www.w3.org/2000/svg">
<path d="M22.1001 8.52V3.98C22.1001 2.57 21.4601 2 19.8701 2H15.8301C14.2401 2 13.6001 2.57 13.6001 3.98V8.51C13.6001 9.93 14.2401 10.49 15.8301 10.49H19.8701C21.4601 10.5 22.1001 9.93 22.1001 8.52Z" stroke="#4E5059" stroke-width="1.5" stroke-linecap="round" stroke-linejoin="round"/>
<path d="M22.1001 19.77V15.73C22.1001 14.14 21.4601 13.5 19.8701 13.5H15.8301C14.2401 13.5 13.6001 14.14 13.6001 15.73V19.77C13.6001 21.36 14.2401 22 15.8301 22H19.8701C21.4601 22 22.1001 21.36 22.1001 19.77Z" stroke="#4E5059" stroke-width="1.5" stroke-linecap="round" stroke-linejoin="round"/>
<path d="M10.6001 8.52V3.98C10.6001 2.57 9.9601 2 8.3701 2H4.3301C2.7401 2 2.1001 2.57 2.1001 3.98V8.51C2.1001 9.93 2.7401 10.49 4.3301 10.49H8.3701C9.9601 10.5 10.6001 9.93 10.6001 8.52Z" stroke="#4E5059" stroke-width="1.5" stroke-linecap="round" stroke-linejoin="round"/>
<path d="M10.6001 19.77V15.73C10.6001 14.14 9.9601 13.5 8.3701 13.5H4.3301C2.7401 13.5 2.1001 14.14 2.1001 15.73V19.77C2.1001 21.36 2.7401 22 4.3301 22H8.3701C9.9601 22 10.6001 21.36 10.6001 19.77Z" stroke="#4E5059" stroke-width="1.5" stroke-linecap="round" stroke-linejoin="round"/>
</svg>
