<svg width="25" height="24" viewBox="0 0 25 24" fill="none" xmlns="http://www.w3.org/2000/svg">
<path d="M19.8732 9.99001V9.99H19.8701H15.8301C15.0723 9.99 14.6695 9.85211 14.4502 9.65808C14.2467 9.47796 14.1001 9.15669 14.1001 8.51V3.98C14.1001 3.33935 14.2462 3.01693 14.4509 2.83503C14.6708 2.63973 15.0741 2.5 15.8301 2.5H19.8701C20.6261 2.5 21.0294 2.63973 21.2492 2.83503C21.454 3.01693 21.6001 3.33935 21.6001 3.98V8.52C21.6001 9.16102 21.4538 9.48268 21.25 9.66308C21.0313 9.85664 20.6289 9.99476 19.8732 9.99001Z" fill="#064BAC" stroke="#064BAC"/>
<path d="M21.6001 15.73V19.77C21.6001 20.5149 21.4472 20.9083 21.2278 21.1277C21.0084 21.3471 20.615 21.5 19.8701 21.5H15.8301C15.0852 21.5 14.6918 21.3471 14.4724 21.1277C14.253 20.9083 14.1001 20.5149 14.1001 19.77V15.73C14.1001 14.9851 14.253 14.5917 14.4724 14.3723C14.6918 14.1529 15.0852 14 15.8301 14H19.8701C20.615 14 21.0084 14.1529 21.2278 14.3723C21.4472 14.5917 21.6001 14.9851 21.6001 15.73Z" fill="#064BAC" stroke="#064BAC"/>
<path d="M8.37324 9.99001V9.99H8.3701H4.3301C3.57235 9.99 3.16946 9.85211 2.95022 9.65808C2.74671 9.47796 2.6001 9.15669 2.6001 8.51V3.98C2.6001 3.33935 2.74622 3.01693 2.95095 2.83503C3.17075 2.63973 3.57413 2.5 4.3301 2.5H8.3701C9.12607 2.5 9.52944 2.63973 9.74925 2.83503C9.95397 3.01693 10.1001 3.33935 10.1001 3.98V8.52C10.1001 9.16102 9.95381 9.48268 9.74998 9.66308C9.53126 9.85664 9.12893 9.99476 8.37324 9.99001Z" fill="#064BAC" stroke="#064BAC"/>
<path d="M10.1001 15.73V19.77C10.1001 20.5149 9.94722 20.9083 9.72779 21.1277C9.50837 21.3471 9.11502 21.5 8.3701 21.5H4.3301C3.58518 21.5 3.19183 21.3471 2.9724 21.1277C2.75297 20.9083 2.6001 20.5149 2.6001 19.77V15.73C2.6001 14.9851 2.75297 14.5917 2.9724 14.3723C3.19183 14.1529 3.58518 14 4.3301 14H8.3701C9.11502 14 9.50837 14.1529 9.72779 14.3723C9.94722 14.5917 10.1001 14.9851 10.1001 15.73Z" fill="#064BAC" stroke="#064BAC"/>
</svg>
