<svg width="16" height="16" viewBox="0 0 16 16" fill="none" xmlns="http://www.w3.org/2000/svg">
<path d="M11.3334 14.6667H4.66671C2.00004 14.6667 1.33337 14 1.33337 11.3333V9.99999C1.33337 7.33332 2.00004 6.66666 4.66671 6.66666H11.3334C14 6.66666 14.6667 7.33332 14.6667 9.99999V11.3333C14.6667 14 14 14.6667 11.3334 14.6667Z" stroke="#4E5059" stroke-width="1.5" stroke-linecap="round" stroke-linejoin="round"/>
<path d="M4 6.66668V5.33334C4 3.12668 4.66667 1.33334 8 1.33334C11 1.33334 12 2.66668 12 4.66668" stroke="#4E5059" stroke-width="1.5" stroke-linecap="round" stroke-linejoin="round"/>
<path d="M8.00004 12.3333C8.92052 12.3333 9.66671 11.5871 9.66671 10.6667C9.66671 9.74619 8.92052 9 8.00004 9C7.07957 9 6.33337 9.74619 6.33337 10.6667C6.33337 11.5871 7.07957 12.3333 8.00004 12.3333Z" stroke="#4E5059" stroke-width="1.5" stroke-linecap="round" stroke-linejoin="round"/>
</svg>
