<svg width="25" height="24" viewBox="0 0 25 24" fill="none" xmlns="http://www.w3.org/2000/svg">
<path d="M12.86 10.87C12.76 10.86 12.64 10.86 12.53 10.87C10.15 10.79 8.26001 8.84 8.26001 6.44C8.26001 3.99 10.24 2 12.7 2C15.15 2 17.14 3.99 17.14 6.44C17.13 8.84 15.24 10.79 12.86 10.87Z" stroke="#4E5059" stroke-width="1.5" stroke-linecap="round" stroke-linejoin="round"/>
<path d="M7.85992 14.56C5.43992 16.18 5.43992 18.82 7.85992 20.43C10.6099 22.27 15.1199 22.27 17.8699 20.43C20.2899 18.81 20.2899 16.17 17.8699 14.56C15.1299 12.73 10.6199 12.73 7.85992 14.56Z" stroke="#4E5059" stroke-width="1.5" stroke-linecap="round" stroke-linejoin="round"/>
</svg>
